<svg width="52" height="53" viewBox="0 0 52 53" fill="none" xmlns="http://www.w3.org/2000/svg">
<path d="M26 52.25C40.2213 52.25 51.75 40.7213 51.75 26.5C51.75 12.2787 40.2213 0.75 26 0.75C11.7787 0.75 0.25 12.2787 0.25 26.5C0.25 40.7213 11.7787 52.25 26 52.25Z" fill="#8FEAFF"/>
<path d="M30.6204 38.9497H21.4004V41.4897H30.6204V38.9497Z" fill="black"/>
<path d="M27.2607 9.8501H24.7207V19.3501H27.2607V9.8501Z" fill="black"/>
<path d="M18.9805 24.98H9.48047V27.52H18.9805V24.98Z" fill="black"/>
<path d="M17.2658 15.8055L15.498 17.5732L20.1932 22.2684L21.961 20.5007L17.2658 15.8055Z" fill="black"/>
<path d="M20.1893 30.2218L15.4941 34.917L17.2619 36.6848L21.9571 31.9896L20.1893 30.2218Z" fill="black"/>
<path d="M42.5605 24.98H33.0605V27.52H42.5605V24.98Z" fill="black"/>
<path d="M34.7733 15.8058L30.0781 20.501L31.8459 22.2687L36.5411 17.5735L34.7733 15.8058Z" fill="black"/>
<path d="M31.842 30.222L30.0742 31.9897L34.7693 36.6849L36.5371 34.9171L31.842 30.222Z" fill="black"/>
</svg>
