<svg width="34" height="34" viewBox="0 0 34 34" fill="none" xmlns="http://www.w3.org/2000/svg">
<g clip-path="url(#clip0_3129_4429)">
<path d="M14.9917 2.7204C14.9917 1.21796 13.8171 0 12.3681 0C10.9192 0 9.74463 1.21796 9.74463 2.7204C9.74463 4.22283 10.9192 5.4408 12.3681 5.4408C13.8171 5.4408 14.9917 4.22283 14.9917 2.7204Z" fill="white"/>
<path d="M25.0146 2.7204C25.0146 1.21796 23.84 0 22.3911 0C20.9422 0 19.7676 1.21796 19.7676 2.7204C19.7676 4.22283 20.9422 5.4408 22.3911 5.4408C23.84 5.4408 25.0146 4.22283 25.0146 2.7204Z" fill="white"/>
<path d="M14.9917 12.3366C14.9917 10.8342 13.8171 9.61621 12.3681 9.61621C10.9192 9.61621 9.74463 10.8342 9.74463 12.3366C9.74463 13.839 10.9192 15.057 12.3681 15.057C13.8171 15.057 14.9917 13.839 14.9917 12.3366Z" fill="white"/>
<path d="M25.0146 12.3366C25.0146 10.8342 23.84 9.61621 22.3911 9.61621C20.9422 9.61621 19.7676 10.8342 19.7676 12.3366C19.7676 13.839 20.9422 15.057 22.3911 15.057C23.84 15.057 25.0146 13.839 25.0146 12.3366Z" fill="white"/>
<path d="M14.9917 21.7829C14.9917 20.2805 13.8171 19.0625 12.3681 19.0625C10.9192 19.0625 9.74463 20.2805 9.74463 21.7829C9.74463 23.2853 10.9192 24.5033 12.3681 24.5033C13.8171 24.5033 14.9917 23.2853 14.9917 21.7829Z" fill="white"/>
<path d="M5.24703 12.3366C5.24703 10.8342 4.07244 9.61621 2.62352 9.61621C1.17459 9.61621 0 10.8342 0 12.3366C0 13.839 1.17459 15.057 2.62352 15.057C4.07244 15.057 5.24703 13.839 5.24703 12.3366Z" fill="white"/>
<path d="M5.24703 21.7829C5.24703 20.2805 4.07244 19.0625 2.62352 19.0625C1.17459 19.0625 0 20.2805 0 21.7829C0 23.2853 1.17459 24.5033 2.62352 24.5033C4.07244 24.5033 5.24703 23.2853 5.24703 21.7829Z" fill="white"/>
<path d="M25.0146 21.7829C25.0146 20.2805 23.84 19.0625 22.3911 19.0625C20.9422 19.0625 19.7676 20.2805 19.7676 21.7829C19.7676 23.2853 20.9422 24.5033 22.3911 24.5033C23.84 24.5033 25.0146 23.2853 25.0146 21.7829Z" fill="white"/>
<path d="M34 12.3366C34 10.8342 32.8254 9.61621 31.3764 9.61621C29.9275 9.61621 28.7529 10.8342 28.7529 12.3366C28.7529 13.839 29.9275 15.057 31.3764 15.057C32.8254 15.057 34 13.839 34 12.3366Z" fill="white"/>
<path d="M34 21.7829C34 20.2805 32.8254 19.0625 31.3764 19.0625C29.9275 19.0625 28.7529 20.2805 28.7529 21.7829C28.7529 23.2853 29.9275 24.5033 31.3764 24.5033C32.8254 24.5033 34 23.2853 34 21.7829Z" fill="white"/>
<path d="M14.9917 31.2795C14.9917 29.777 13.8171 28.5591 12.3681 28.5591C10.9192 28.5591 9.74463 29.777 9.74463 31.2795C9.74463 32.7819 10.9192 33.9999 12.3681 33.9999C13.8171 33.9999 14.9917 32.7819 14.9917 31.2795Z" fill="white"/>
<path d="M25.0146 31.2795C25.0146 29.777 23.84 28.5591 22.3911 28.5591C20.9422 28.5591 19.7676 29.777 19.7676 31.2795C19.7676 32.7819 20.9422 33.9999 22.3911 33.9999C23.84 33.9999 25.0146 32.7819 25.0146 31.2795Z" fill="white"/>
</g>
<defs>
<clipPath id="clip0_3129_4429">
<rect width="34" height="34" fill="white"/>
</clipPath>
</defs>
</svg>
