<svg width="88" height="56" viewBox="0 0 88 56" fill="none" xmlns="http://www.w3.org/2000/svg">
<g clip-path="url(#clip0_3072_234)">
<path d="M8.91513 32.2312V21.2429H10.9072V32.2312H8.91513ZM13.9521 32.2312V21.2429H15.9064V22.9974H16.2018C16.4366 22.4983 16.8304 22.037 17.3985 21.6438C17.959 21.2429 18.7922 21.0463 19.8829 21.0463C20.9737 21.0463 21.4433 21.2127 22.1023 21.5757C22.7688 21.9387 23.299 22.4378 23.6626 23.1336C24.0262 23.8293 24.2231 24.6234 24.2231 25.614V32.2312H22.231V25.7426C22.231 24.6839 21.9659 23.9201 21.466 23.4587C20.9358 22.9974 20.2389 22.7327 19.3452 22.7327C18.4514 22.7327 17.5197 23.0655 16.891 23.7234C16.2624 24.3889 15.9594 25.3796 15.9594 26.6652V32.1934H13.9673L13.937 32.2236L13.9521 32.2312ZM31.487 32.5639C30.0933 32.5639 28.9647 32.269 28.0103 31.6338C27.0787 31.0061 26.5182 30.0154 26.3212 28.692L28.2073 28.2609C28.3057 28.9264 28.5027 29.4558 28.8359 29.849C29.1313 30.2498 29.5328 30.5145 29.9948 30.6733C30.4569 30.8397 30.9568 30.9078 31.487 30.9078C32.2823 30.9078 32.911 30.7414 33.3427 30.4465C33.7745 30.1515 34.0093 29.7205 34.0093 29.2213C34.0093 28.7222 33.8124 28.329 33.3806 28.0945C32.9489 27.8601 32.3884 27.6937 31.6233 27.5652L30.7599 27.3988C30.0327 27.2627 29.404 27.066 28.8056 26.8013C28.2073 26.5367 27.7452 26.2039 27.3817 25.7729C27.0181 25.3418 26.8514 24.7822 26.8514 24.0864C26.8514 23.0957 27.2529 22.3017 28.0103 21.7345C28.7753 21.1749 29.7979 20.9102 31.0628 20.9102C32.3278 20.9102 33.32 21.1749 34.1153 21.7345C34.9107 22.2941 35.4106 23.0579 35.6378 24.0486L33.7821 24.578C33.6457 23.852 33.3503 23.3226 32.8883 23.0201C32.4262 22.7252 31.8279 22.5588 31.1007 22.5588C30.3736 22.5588 29.8736 22.6949 29.4798 22.9596C29.0783 23.2243 28.8814 23.5873 28.8814 24.0864C28.8814 24.5856 29.0783 24.9485 29.4419 25.1754C29.8433 25.4099 30.3357 25.5762 31.0022 25.7048L31.8657 25.8409C32.661 25.977 33.3579 26.1737 34.0169 26.4005C34.6455 26.635 35.1455 26.9602 35.509 27.3912C35.8726 27.8223 36.0695 28.4197 36.0695 29.1457C36.0695 30.2347 35.6681 31.0666 34.8425 31.664C34.0472 32.2614 32.9564 32.5564 31.593 32.5564H31.4946L31.487 32.5639ZM38.2813 32.2312V21.2429H40.2734V32.2312H38.2813ZM42.6214 26.8013V26.5064C42.6214 25.3494 42.8563 24.3587 43.3183 23.5268C43.7803 22.7025 44.409 22.0672 45.2043 21.6059C45.9694 21.1749 46.8631 20.9404 47.8251 20.9404C48.7871 20.9404 49.8172 21.1371 50.408 21.5681C51.0064 21.9992 51.4381 22.4605 51.7335 22.9596H52.0668V21.2732H53.9907V34.6739C53.9907 35.3016 53.8241 35.8309 53.4605 36.1939C53.0969 36.5569 52.597 36.7535 51.938 36.7535H44.4772V34.9991H51.3396C51.8017 34.9991 52.0062 34.7646 52.0062 34.3336V30.4313H51.6729C51.5063 30.7263 51.2412 31.059 50.9458 31.3615C50.6504 31.6564 50.2186 31.8909 49.7187 32.0875C49.2188 32.2841 48.5901 32.3824 47.8327 32.3824C47.0752 32.3824 46.0072 32.148 45.2119 31.7169C44.4166 31.2859 43.7879 30.6582 43.3259 29.7961C42.8638 28.9718 42.629 27.9735 42.629 26.8165V26.7862L42.6214 26.8013ZM48.325 30.575C49.3854 30.575 50.2792 30.2423 50.9761 29.5465C51.6729 28.8508 52.0062 27.9282 52.0062 26.703V26.5367C52.0062 25.3115 51.6729 24.3511 50.9761 23.6932C50.2792 23.0352 49.3854 22.7025 48.2947 22.7025C47.204 22.7025 46.3405 23.0352 45.6437 23.6932C44.9468 24.3511 44.6135 25.3115 44.6135 26.5367V26.703C44.6135 27.9282 44.9468 28.8508 45.6437 29.5465C46.3405 30.2423 47.204 30.575 48.2947 30.575H48.325ZM56.7402 32.2312V16.5467H58.7323V22.8991H59.0277C59.1944 22.6042 59.4292 22.3017 59.7246 22.0068C60.02 21.7118 60.3911 21.4774 60.8835 21.311C61.3455 21.1446 61.9439 21.0463 62.671 21.0463C63.3982 21.0463 64.2314 21.2127 64.8903 21.5757C65.5569 21.9387 66.0871 22.4378 66.4507 23.1336C66.8143 23.7991 67.0112 24.6234 67.0112 25.5838V32.2009H65.0191V25.7124C65.0191 24.6536 64.754 23.9276 64.2541 23.4285C63.7239 22.9672 63.027 22.7327 62.1332 22.7327C61.2395 22.7327 60.3078 23.0655 59.6791 23.7234C59.0504 24.3889 58.7475 25.3796 58.7475 26.635V32.1631H56.7554L56.7251 32.2312H56.7402ZM73.813 32.2312C73.1844 32.2312 72.6542 32.0346 72.2906 31.6716C71.927 31.3086 71.7301 30.8095 71.7301 30.1515V22.9067H68.5488V21.2203H71.7301V17.4163H73.7222V21.2203H77.1988V22.9067H73.7222V29.8263C73.7222 30.2876 73.957 30.4918 74.3887 30.4918H76.7747V32.1783H73.8282V32.2463L73.813 32.2312ZM12.6948 17.439H7.15786V18.9591H12.6948V17.439ZM42.0231 17.439H36.4861V18.9591H42.0231V17.439ZM10.6724 0H9.14994V5.69453H10.6724V0ZM5.70356 9.06739H0V10.5874H5.70356V9.06739ZM4.67344 3.57704L3.61301 4.63579L6.43071 7.44902L7.49113 6.39028L4.67344 3.57704ZM6.43071 12.2134L3.61301 15.0266L4.67344 16.0853L7.49113 13.2721L6.43071 12.2134ZM19.8526 9.06739H14.1491V10.5874H19.8526V9.06739ZM15.1792 3.57704L12.3615 6.39028L13.4219 7.44902L16.2396 4.63579L15.1792 3.57704ZM13.4219 12.2134L12.3615 13.2721L15.1792 16.0853L16.2396 15.0266L13.4219 12.2134ZM8.02892 45.5865V45.2537C8.02892 44.0438 8.2713 43.0077 8.76364 42.1456C9.24841 41.2835 9.91496 40.618 10.7481 40.1415C11.5813 39.6727 12.4903 39.4382 13.4825 39.4382C14.6944 39.4382 15.6261 39.6726 16.2775 40.134C16.9289 40.5953 17.4137 41.1095 17.7318 41.6767H18.0651V39.771H19.8375V53.9808C19.8375 54.6085 19.6633 55.1001 19.3224 55.4631C18.974 55.8261 18.4741 56.0076 17.8151 56.0076H9.98313V54.3589H17.3228C17.7924 54.3589 18.0272 54.1245 18.0272 53.6556V49.277H17.6939C17.5046 49.6248 17.2395 49.9576 16.891 50.2903C16.5426 50.6231 16.0957 50.8878 15.5428 51.0995C14.9898 51.3113 14.3081 51.4171 13.4901 51.4171C12.4978 51.4171 11.5889 51.1827 10.7557 50.7138C9.92253 50.245 9.26356 49.5719 8.77122 48.7022C8.28645 47.8325 8.0365 46.7965 8.0365 45.6016L8.02892 45.5865ZM13.9749 49.761C15.1716 49.761 16.1412 49.3828 16.891 48.6266C17.6409 47.8704 18.0121 46.8343 18.0121 45.5184V45.3294C18.0121 43.9984 17.6409 42.9548 16.891 42.2061C16.1412 41.4574 15.1716 41.0868 13.9749 41.0868C12.7781 41.0868 11.8237 41.4574 11.0587 42.2061C10.2937 42.9548 9.91496 43.9908 9.91496 45.3294V45.5184C9.91496 46.8343 10.2937 47.8779 11.0587 48.6266C11.8237 49.3828 12.7933 49.761 13.9749 49.761ZM28.0861 51.6213C26.9196 51.6213 25.8971 51.3718 25.0184 50.8802C24.1398 50.3887 23.4505 49.6929 22.9657 48.793C22.481 47.9006 22.231 46.8645 22.231 45.6848V45.405C22.231 44.2101 22.4734 43.1665 22.9657 42.2741C23.4505 41.3818 24.1322 40.686 24.9957 40.1869C25.8592 39.6953 26.8514 39.4458 27.9725 39.4458C29.0935 39.4458 30.0176 39.6802 30.8507 40.1415C31.6839 40.6028 32.3353 41.2683 32.8125 42.1304C33.2821 42.9926 33.517 44.0059 33.517 45.1706V46.0176H24.1019C24.1474 47.2578 24.5488 48.2258 25.3062 48.9291C26.0637 49.6248 27.0029 49.9803 28.1391 49.9803C29.1313 49.9803 29.8964 49.7534 30.4266 49.2997C30.9644 48.8459 31.3734 48.3014 31.6536 47.6737L33.2594 48.4527C33.0246 48.9367 32.6989 49.4282 32.2823 49.9122C31.8657 50.3962 31.3204 50.8046 30.6538 51.1373C29.9873 51.4701 29.1313 51.6289 28.0936 51.6289L28.0861 51.6213ZM24.1171 44.4824H31.6233C31.5627 43.4161 31.1916 42.5842 30.525 41.9868C29.8585 41.3893 29.0026 41.0944 27.9649 41.0944C26.9272 41.0944 26.0485 41.3893 25.3668 41.9868C24.6927 42.5842 24.2761 43.4161 24.1171 44.4824ZM35.8272 51.2886V39.771H37.645V41.7296H37.9783C38.2283 41.1776 38.66 40.6785 39.266 40.2323C39.8719 39.7861 40.7657 39.5592 41.9473 39.5592C42.8108 39.5592 43.5834 39.7407 44.2727 40.1037C44.9544 40.4667 45.5073 40.9961 45.9163 41.707C46.3254 42.4103 46.5299 43.2875 46.5299 44.3236V51.2962H44.6666V44.4672C44.6666 43.3178 44.3787 42.4859 43.8031 41.9716C43.2274 41.4498 42.4548 41.1927 41.4777 41.1927C40.3567 41.1927 39.4553 41.5557 38.7509 42.2741C38.0541 43.0001 37.6981 44.074 37.6981 45.5033V51.2962H35.8347L35.8272 51.2886ZM54.6345 51.6213C53.4681 51.6213 52.4455 51.3718 51.5669 50.8802C50.6882 50.3887 49.999 49.6929 49.5142 48.793C49.0294 47.9006 48.7795 46.8645 48.7795 45.6848V45.405C48.7795 44.2101 49.0219 43.1665 49.5142 42.2741C49.999 41.3818 50.6807 40.686 51.5442 40.1869C52.4076 39.6953 53.3999 39.4458 54.5209 39.4458C55.6419 39.4458 56.566 39.6802 57.3992 40.1415C58.2324 40.6028 58.8838 41.2683 59.361 42.1304C59.8306 42.9926 60.0654 44.0059 60.0654 45.1706V46.0176H50.6504C50.6958 47.2578 51.0973 48.2258 51.8547 48.9291C52.6122 49.6248 53.5514 49.9803 54.6875 49.9803C55.6798 49.9803 56.4448 49.7534 56.975 49.2997C57.5128 48.8459 57.9218 48.3014 58.2021 47.6737L59.8079 48.4527C59.5731 48.9367 59.2474 49.4282 58.8308 49.9122C58.4142 50.3962 57.8688 50.8046 57.2023 51.1373C56.5357 51.4701 55.6798 51.6289 54.6421 51.6289L54.6345 51.6213ZM50.6655 44.4824H58.1718C58.1112 43.4161 57.7401 42.5842 57.0735 41.9868C56.407 41.3893 55.551 41.0944 54.5133 41.0944C53.4756 41.0944 52.597 41.3893 51.9153 41.9868C51.2412 42.5842 50.8246 43.4161 50.6655 44.4824ZM67.0188 51.6213C65.5872 51.6213 64.3829 51.2886 63.3982 50.6306C62.4135 49.9727 61.8227 48.9291 61.6182 47.4998L63.3906 47.099C63.5194 47.8552 63.7542 48.4451 64.095 48.8762C64.4435 49.3072 64.8676 49.6173 65.3827 49.7912C65.8902 49.9727 66.4431 50.0635 67.0263 50.0635C67.8898 50.0635 68.5791 49.8895 69.079 49.5417C69.5789 49.1938 69.8365 48.7325 69.8365 48.1502C69.8365 47.5679 69.5941 47.1368 69.1169 46.8872C68.6397 46.6452 67.9807 46.441 67.1475 46.2898L66.178 46.1234C65.4357 45.9949 64.7616 45.7982 64.148 45.5336C63.5345 45.2689 63.0498 44.9059 62.6862 44.4521C62.3226 43.9984 62.1408 43.4236 62.1408 42.7354C62.1408 41.6994 62.5423 40.8902 63.3451 40.3079C64.148 39.7256 65.2085 39.4382 66.534 39.4382C67.8595 39.4382 68.8972 39.7332 69.7077 40.323C70.5182 40.9129 71.0408 41.7372 71.2756 42.8111L69.5259 43.2573C69.382 42.4254 69.0487 41.8431 68.5109 41.5028C67.9731 41.1625 67.3142 40.9961 66.5264 40.9961C65.7387 40.9961 65.1176 41.1398 64.6631 41.4347C64.2086 41.7296 63.9814 42.1531 63.9814 42.7203C63.9814 43.2875 64.2011 43.6732 64.6328 43.9303C65.0646 44.1874 65.6402 44.3841 66.3674 44.5051L67.3369 44.6714C68.1549 44.8151 68.8896 45.0042 69.5411 45.2462C70.1925 45.4882 70.7151 45.8361 71.1014 46.2974C71.4877 46.7511 71.677 47.3485 71.677 48.0897C71.677 49.224 71.2529 50.0937 70.4121 50.7063C69.5714 51.3188 68.4428 51.6289 67.0263 51.6289L67.0188 51.6213ZM74.8053 37.9787C74.3963 37.9787 74.0554 37.8425 73.7752 37.5779C73.5025 37.3132 73.3586 36.9729 73.3586 36.5645C73.3586 36.1561 73.4949 35.7931 73.7752 35.5284C74.0479 35.2637 74.3887 35.1276 74.8053 35.1276C75.2219 35.1276 75.5552 35.2637 75.8203 35.5284C76.0854 35.7931 76.2217 36.141 76.2217 36.5645C76.2217 36.988 76.0854 37.3132 75.8203 37.5779C75.5552 37.8425 75.2143 37.9787 74.8053 37.9787ZM73.8661 51.2886V39.771H75.7294V51.2886H73.8661ZM83.3493 51.6213C81.9177 51.6213 80.7134 51.2886 79.7287 50.6306C78.744 49.9727 78.1532 48.9291 77.9487 47.4998L79.7211 47.099C79.8499 47.8552 80.0847 48.4451 80.4255 48.8762C80.7664 49.3072 81.1981 49.6173 81.7132 49.7912C82.2207 49.9727 82.7736 50.0635 83.3569 50.0635C84.2204 50.0635 84.9096 49.8895 85.4095 49.5417C85.9095 49.1938 86.167 48.7325 86.167 48.1502C86.167 47.5679 85.9246 47.1368 85.4474 46.8872C84.9702 46.6452 84.3112 46.441 83.4781 46.2898L82.5085 46.1234C81.7662 45.9949 81.0921 45.7982 80.4786 45.5336C79.865 45.2689 79.3803 44.9059 79.0167 44.4521C78.6531 43.9984 78.4713 43.4236 78.4713 42.7354C78.4713 41.6994 78.8728 40.8902 79.6757 40.3079C80.4786 39.7256 81.539 39.4382 82.8645 39.4382C84.19 39.4382 85.2278 39.7332 86.0382 40.323C86.8487 40.9129 87.3713 41.7372 87.6061 42.8111L85.8564 43.2573C85.7125 42.4254 85.3792 41.8431 84.8415 41.5028C84.3037 41.1625 83.6447 40.9961 82.8569 40.9961C82.0692 40.9961 81.4481 41.1398 80.9936 41.4347C80.5392 41.7296 80.3119 42.1531 80.3119 42.7203C80.3119 43.2875 80.5316 43.6732 80.9633 43.9303C81.3951 44.1874 81.9707 44.3841 82.6979 44.5051L83.6674 44.6714C84.4855 44.8151 85.2202 45.0042 85.8716 45.2462C86.523 45.4882 87.0456 45.8361 87.4319 46.2974C87.8182 46.7511 88.0076 47.3485 88.0076 48.0897C88.0076 49.224 87.5834 50.0937 86.7426 50.7063C85.9019 51.3188 84.7733 51.6289 83.3569 51.6289L83.3493 51.6213Z" fill="white"/>
<path d="M11 12H10.3583L9.85457 10.7227H8.10945L7.5997 12H7L8.68516 8H9.31484L11 12ZM8.997 8.43697H8.98501L8.27136 10.2969H9.70465L8.997 8.43697Z" fill="white"/>
<line x1="12.35" y1="8" x2="12.35" y2="12" stroke="white" stroke-width="0.7"/>
</g>
<defs>
<clipPath id="clip0_3072_234">
<rect width="88" height="56" fill="white"/>
</clipPath>
</defs>
</svg>
