<svg width="197" height="198" viewBox="0 0 197 198" fill="none" xmlns="http://www.w3.org/2000/svg">
<path d="M19.3518 1.15625H19.3418C8.7545 1.15625 0.171875 9.98993 0.171875 20.8868V20.8971C0.171875 31.7939 8.7545 40.6275 19.3418 40.6275H19.3518C29.9391 40.6275 38.5219 31.7939 38.5219 20.8971V20.8868C38.5219 9.98993 29.9391 1.15625 19.3518 1.15625Z" fill="#8FEAFF"/>
<path d="M137.692 0.641602H178.582V40.6377H137.692C126.972 40.6377 118.262 31.6731 118.262 20.6397C118.262 9.60631 126.972 0.641602 137.692 0.641602Z" fill="url(#paint0_radial_3129_3889)"/>
<path d="M18.0703 79.0586H93.6903C104.41 79.0586 113.12 88.0233 113.12 99.0567C113.12 110.09 104.41 119.055 93.6903 119.055H18.0703V79.0586Z" fill="url(#paint1_radial_3129_3889)"/>
<path d="M178.842 119.045H155.792C145.072 119.045 136.362 110.08 136.362 99.0468C136.362 88.0134 145.072 79.0487 155.792 79.0487H178.842V119.045Z" fill="url(#paint2_radial_3129_3889)"/>
<path d="M177.83 1.15625H177.82C167.233 1.15625 158.65 9.98993 158.65 20.8868V20.8971C158.65 31.7939 167.233 40.6275 177.82 40.6275H177.83C188.418 40.6275 197 31.7939 197 20.8971V20.8868C197 9.98993 188.418 1.15625 177.83 1.15625Z" fill="#8FEAFF"/>
<path d="M98.5901 1.15625H98.5801C87.9928 1.15625 79.4102 9.98993 79.4102 20.8868V20.8971C79.4102 31.7939 87.9928 40.6275 98.5801 40.6275H98.5901C109.177 40.6275 117.76 31.7939 117.76 20.8971V20.8868C117.76 9.98993 109.177 1.15625 98.5901 1.15625Z" fill="#8FEAFF"/>
<path d="M19.3518 157.991H19.3418C8.7545 157.991 0.171875 166.825 0.171875 177.722V177.732C0.171875 188.629 8.7545 197.462 19.3418 197.462H19.3518C29.9391 197.462 38.5219 188.629 38.5219 177.732V177.722C38.5219 166.825 29.9391 157.991 19.3518 157.991Z" fill="#8FEAFF"/>
<path d="M177.83 157.991H177.82C167.233 157.991 158.65 166.825 158.65 177.722V177.732C158.65 188.629 167.233 197.462 177.82 197.462H177.83C188.418 197.462 197 188.629 197 177.732V177.722C197 166.825 188.418 157.991 177.83 157.991Z" fill="#8FEAFF"/>
<path d="M98.5901 157.991H98.5801C87.9928 157.991 79.4102 166.825 79.4102 177.722V177.732C79.4102 188.629 87.9928 197.462 98.5801 197.462H98.5901C109.177 197.462 117.76 188.629 117.76 177.732V177.722C117.76 166.825 109.177 157.991 98.5901 157.991Z" fill="#8FEAFF"/>
<path d="M98.5901 79.1831H98.5801C87.9928 79.1831 79.4102 88.0167 79.4102 98.9135V98.9238C79.4102 109.821 87.9928 118.654 98.5801 118.654H98.5901C109.177 118.654 117.76 109.821 117.76 98.9238V98.9135C117.76 88.0167 109.177 79.1831 98.5901 79.1831Z" fill="#8FEAFF"/>
<path d="M19.3518 78.7913H19.3418C8.7545 78.7913 0.171875 87.6248 0.171875 98.5216V98.532C0.171875 109.429 8.7545 118.262 19.3418 118.262H19.3518C29.9391 118.262 38.5219 109.429 38.5219 98.532V98.5216C38.5219 87.6248 29.9391 78.7913 19.3518 78.7913Z" fill="#8FEAFF"/>
<path d="M177.83 78.7913H177.82C167.233 78.7913 158.65 87.6248 158.65 98.5216V98.532C158.65 109.429 167.233 118.262 177.82 118.262H177.83C188.418 118.262 197 109.429 197 98.532V98.5216C197 87.6248 188.418 78.7913 177.83 78.7913Z" fill="#8FEAFF"/>
<defs>
<radialGradient id="paint0_radial_3129_3889" cx="0" cy="0" r="1" gradientUnits="userSpaceOnUse" gradientTransform="translate(148.422 20.6294) scale(25.37 26.1117)">
<stop offset="0.12" stop-opacity="0"/>
<stop offset="0.19" stop-color="#030B0F" stop-opacity="0.13"/>
<stop offset="0.54" stop-color="#1F82AB" stop-opacity="0.85"/>
<stop offset="1" stop-color="#29ABE2"/>
</radialGradient>
<radialGradient id="paint1_radial_3129_3889" cx="0" cy="0" r="1" gradientUnits="userSpaceOnUse" gradientTransform="translate(-54.3097 152.639) scale(274.56 282.588)">
<stop offset="0.12" stop-opacity="0"/>
<stop offset="0.19" stop-color="#030B0F" stop-opacity="0.13"/>
<stop offset="0.54" stop-color="#1F82AB" stop-opacity="0.85"/>
<stop offset="1" stop-color="#29ABE2"/>
</radialGradient>
<radialGradient id="paint2_radial_3129_3889" cx="0" cy="0" r="1" gradientUnits="userSpaceOnUse" gradientTransform="translate(157.602 99.0468) scale(20.35 20.945)">
<stop offset="0.12" stop-opacity="0"/>
<stop offset="0.19" stop-color="#030B0F" stop-opacity="0.13"/>
<stop offset="0.54" stop-color="#1F82AB" stop-opacity="0.85"/>
<stop offset="1" stop-color="#29ABE2"/>
</radialGradient>
</defs>
</svg>
