<svg width="197" height="197" viewBox="0 0 197 197" fill="none" xmlns="http://www.w3.org/2000/svg">
<path d="M36.7418 158.471H1.95178C0.968715 158.471 0.171875 159.268 0.171875 160.251V195.041C0.171875 196.024 0.968715 196.821 1.95178 196.821H36.7418C37.7249 196.821 38.5219 196.024 38.5219 195.041V160.251C38.5219 159.268 37.7249 158.471 36.7418 158.471Z" fill="url(#paint0_radial_3129_3834)"/>
<path d="M76.361 158.471H41.5709C40.5879 158.471 39.791 159.268 39.791 160.251V195.041C39.791 196.024 40.5879 196.821 41.5709 196.821H76.361C77.344 196.821 78.141 196.024 78.141 195.041V160.251C78.141 159.268 77.344 158.471 76.361 158.471Z" fill="#8FEAFF"/>
<path d="M115.98 158.471H81.1901C80.207 158.471 79.4102 159.268 79.4102 160.251V195.041C79.4102 196.024 80.207 196.821 81.1901 196.821H115.98C116.963 196.821 117.76 196.024 117.76 195.041V160.251C117.76 159.268 116.963 158.471 115.98 158.471Z" fill="#8FEAFF"/>
<path d="M155.601 158.471H120.811C119.828 158.471 119.031 159.268 119.031 160.251V195.041C119.031 196.024 119.828 196.821 120.811 196.821H155.601C156.584 196.821 157.381 196.024 157.381 195.041V160.251C157.381 159.268 156.584 158.471 155.601 158.471Z" fill="#8FEAFF"/>
<path d="M195.22 158.471H160.43C159.447 158.471 158.65 159.268 158.65 160.251V195.041C158.65 196.024 159.447 196.821 160.43 196.821H195.22C196.203 196.821 197 196.024 197 195.041V160.251C197 159.268 196.203 158.471 195.22 158.471Z" fill="#8FEAFF"/>
<path d="M32.7118 118.86H5.98181C2.77304 118.86 0.171875 121.462 0.171875 124.67V151.4C0.171875 154.609 2.77304 157.21 5.98181 157.21H32.7118C35.9206 157.21 38.5219 154.609 38.5219 151.4V124.67C38.5219 121.462 35.9206 118.86 32.7118 118.86Z" fill="#8FEAFF"/>
<path d="M72.3309 118.86H45.601C42.3922 118.86 39.791 121.462 39.791 124.67V151.4C39.791 154.609 42.3922 157.21 45.601 157.21H72.3309C75.5397 157.21 78.141 154.609 78.141 151.4V124.67C78.141 121.462 75.5397 118.86 72.3309 118.86Z" fill="#8FEAFF"/>
<path d="M111.95 118.86H85.2201C82.0113 118.86 79.4102 121.462 79.4102 124.67V151.4C79.4102 154.609 82.0113 157.21 85.2201 157.21H111.95C115.159 157.21 117.76 154.609 117.76 151.4V124.67C117.76 121.462 115.159 118.86 111.95 118.86Z" fill="#8FEAFF"/>
<path d="M151.571 118.86H124.841C121.632 118.86 119.031 121.462 119.031 124.67V151.4C119.031 154.609 121.632 157.21 124.841 157.21H151.571C154.78 157.21 157.381 154.609 157.381 151.4V124.67C157.381 121.462 154.78 118.86 151.571 118.86Z" fill="#8FEAFF"/>
<path d="M191.19 118.86H164.46C161.252 118.86 158.65 121.462 158.65 124.67V151.4C158.65 154.609 161.252 157.21 164.46 157.21H191.19C194.399 157.21 197 154.609 197 151.4V124.67C197 121.462 194.399 118.86 191.19 118.86Z" fill="#8FEAFF"/>
<path d="M26.7118 79.2402H11.9818C5.45933 79.2402 0.171875 84.5278 0.171875 91.0503V105.78C0.171875 112.303 5.45933 117.59 11.9818 117.59H26.7118C33.2343 117.59 38.5219 112.303 38.5219 105.78V91.0503C38.5219 84.5278 33.2343 79.2402 26.7118 79.2402Z" fill="#8FEAFF"/>
<path d="M66.3309 79.2402H51.601C45.0785 79.2402 39.791 84.5278 39.791 91.0503V105.78C39.791 112.303 45.0785 117.59 51.601 117.59H66.3309C72.8534 117.59 78.141 112.303 78.141 105.78V91.0503C78.141 84.5278 72.8534 79.2402 66.3309 79.2402Z" fill="url(#paint1_radial_3129_3834)"/>
<path d="M105.95 79.2402H91.2201C84.6976 79.2402 79.4102 84.5278 79.4102 91.0503V105.78C79.4102 112.303 84.6976 117.59 91.2201 117.59H105.95C112.473 117.59 117.76 112.303 117.76 105.78V91.0503C117.76 84.5278 112.473 79.2402 105.95 79.2402Z" fill="#8FEAFF"/>
<path d="M145.571 79.2402H130.841C124.319 79.2402 119.031 84.5278 119.031 91.0503V105.78C119.031 112.303 124.319 117.59 130.841 117.59H145.571C152.094 117.59 157.381 112.303 157.381 105.78V91.0503C157.381 84.5278 152.094 79.2402 145.571 79.2402Z" fill="#8FEAFF"/>
<path d="M185.19 79.2402H170.46C163.938 79.2402 158.65 84.5278 158.65 91.0503V105.78C158.65 112.303 163.938 117.59 170.46 117.59H185.19C191.713 117.59 197 112.303 197 105.78V91.0503C197 84.5278 191.713 79.2402 185.19 79.2402Z" fill="url(#paint2_radial_3129_3834)"/>
<path d="M22.0118 39.6201H16.6819C7.56366 39.6201 0.171875 47.0119 0.171875 56.1301V61.4602C0.171875 70.5784 7.56366 77.9701 16.6819 77.9701H22.0118C31.1301 77.9701 38.5219 70.5784 38.5219 61.4602V56.1301C38.5219 47.0119 31.1301 39.6201 22.0118 39.6201Z" fill="#8FEAFF"/>
<path d="M61.631 39.6201H56.301C47.1828 39.6201 39.791 47.0119 39.791 56.1301V61.4602C39.791 70.5784 47.1828 77.9701 56.301 77.9701H61.631C70.7492 77.9701 78.141 70.5784 78.141 61.4602V56.1301C78.141 47.0119 70.7492 39.6201 61.631 39.6201Z" fill="#8FEAFF"/>
<path d="M101.25 39.6201H95.9202C86.8019 39.6201 79.4102 47.0119 79.4102 56.1301V61.4602C79.4102 70.5784 86.8019 77.9701 95.9202 77.9701H101.25C110.368 77.9701 117.76 70.5784 117.76 61.4602V56.1301C117.76 47.0119 110.368 39.6201 101.25 39.6201Z" fill="#8FEAFF"/>
<path d="M140.871 39.6201H135.541C126.423 39.6201 119.031 47.0119 119.031 56.1301V61.4602C119.031 70.5784 126.423 77.9701 135.541 77.9701H140.871C149.989 77.9701 157.381 70.5784 157.381 61.4602V56.1301C157.381 47.0119 149.989 39.6201 140.871 39.6201Z" fill="#8FEAFF"/>
<path d="M180.49 39.6201H175.16C166.042 39.6201 158.65 47.0119 158.65 56.1301V61.4602C158.65 70.5784 166.042 77.9701 175.16 77.9701H180.49C189.609 77.9701 197 70.5784 197 61.4602V56.1301C197 47.0119 189.609 39.6201 180.49 39.6201Z" fill="#8FEAFF"/>
<path d="M19.3518 0H19.3418C8.7545 0 0.171875 8.58275 0.171875 19.17V19.1801C0.171875 29.7674 8.7545 38.35 19.3418 38.35H19.3518C29.9391 38.35 38.5219 29.7674 38.5219 19.1801V19.17C38.5219 8.58275 29.9391 0 19.3518 0Z" fill="#8FEAFF"/>
<path d="M58.9709 0H58.9609C48.3736 0 39.791 8.58275 39.791 19.17V19.1801C39.791 29.7674 48.3736 38.35 58.9609 38.35H58.9709C69.5582 38.35 78.141 29.7674 78.141 19.1801V19.17C78.141 8.58275 69.5582 0 58.9709 0Z" fill="url(#paint3_radial_3129_3834)"/>
<path d="M98.5901 0H98.5801C87.9928 0 79.4102 8.58275 79.4102 19.17V19.1801C79.4102 29.7674 87.9928 38.35 98.5801 38.35H98.5901C109.177 38.35 117.76 29.7674 117.76 19.1801V19.17C117.76 8.58275 109.177 0 98.5901 0Z" fill="#8FEAFF"/>
<path d="M138.211 0H138.201C127.614 0 119.031 8.58275 119.031 19.17V19.1801C119.031 29.7674 127.614 38.35 138.201 38.35H138.211C148.798 38.35 157.381 29.7674 157.381 19.1801V19.17C157.381 8.58275 148.798 0 138.211 0Z" fill="#8FEAFF"/>
<path d="M177.83 0H177.82C167.233 0 158.65 8.58275 158.65 19.17V19.1801C158.65 29.7674 167.233 38.35 177.82 38.35H177.83C188.418 38.35 197 29.7674 197 19.1801V19.17C197 8.58275 188.418 0 177.83 0Z" fill="#8FEAFF"/>
<defs>
<radialGradient id="paint0_radial_3129_3834" cx="0" cy="0" r="1" gradientUnits="userSpaceOnUse" gradientTransform="translate(19.3419 177.651) scale(19.17 19.17)">
<stop offset="0.12" stop-opacity="0"/>
<stop offset="0.19" stop-color="#030B0F" stop-opacity="0.13"/>
<stop offset="0.54" stop-color="#1F82AB" stop-opacity="0.85"/>
<stop offset="1" stop-color="#29ABE2"/>
</radialGradient>
<radialGradient id="paint1_radial_3129_3834" cx="0" cy="0" r="1" gradientUnits="userSpaceOnUse" gradientTransform="translate(58.961 98.4102) scale(19.17)">
<stop offset="0.12" stop-opacity="0"/>
<stop offset="0.19" stop-color="#030B0F" stop-opacity="0.13"/>
<stop offset="0.54" stop-color="#1F82AB" stop-opacity="0.85"/>
<stop offset="1" stop-color="#29ABE2"/>
</radialGradient>
<radialGradient id="paint2_radial_3129_3834" cx="0" cy="0" r="1" gradientUnits="userSpaceOnUse" gradientTransform="translate(177.82 98.4102) scale(0.5)">
<stop offset="0.12" stop-opacity="0"/>
<stop offset="0.19" stop-color="#030B0F" stop-opacity="0.13"/>
<stop offset="0.54" stop-color="#1F82AB" stop-opacity="0.85"/>
<stop offset="1" stop-color="#29ABE2"/>
</radialGradient>
<radialGradient id="paint3_radial_3129_3834" cx="0" cy="0" r="1" gradientUnits="userSpaceOnUse" gradientTransform="translate(58.961 19.17) scale(19.17)">
<stop offset="0.12" stop-opacity="0"/>
<stop offset="0.19" stop-color="#030B0F" stop-opacity="0.13"/>
<stop offset="0.54" stop-color="#1F82AB" stop-opacity="0.85"/>
<stop offset="1" stop-color="#29ABE2"/>
</radialGradient>
</defs>
</svg>
