<svg width="197" height="198" viewBox="0 0 197 198" fill="none" xmlns="http://www.w3.org/2000/svg">
<path d="M78.6466 93.4433C86.9541 93.4433 93.6887 86.657 93.6887 78.2857C93.6887 69.9145 86.9541 63.1283 78.6466 63.1283C70.3391 63.1283 63.6045 69.9145 63.6045 78.2857C63.6045 86.657 70.3391 93.4433 78.6466 93.4433Z" fill="#8FEAFF"/>
<path d="M78.6473 11.6231C81.7058 11.6231 84.1851 9.12464 84.1851 6.04269C84.1851 2.96074 81.7058 0.462402 78.6473 0.462402C75.5888 0.462402 73.1094 2.96074 73.1094 6.04269C73.1094 9.12464 75.5888 11.6231 78.6473 11.6231Z" fill="#8FEAFF"/>
<path d="M119.134 11.6231C122.192 11.6231 124.671 9.12464 124.671 6.04269C124.671 2.96074 122.192 0.462402 119.134 0.462402C116.075 0.462402 113.596 2.96074 113.596 6.04269C113.596 9.12464 116.075 11.6231 119.134 11.6231Z" fill="#8FEAFF"/>
<path d="M78.6473 197.283C81.7058 197.283 84.1851 194.785 84.1851 191.703C84.1851 188.621 81.7058 186.123 78.6473 186.123C75.5888 186.123 73.1094 188.621 73.1094 191.703C73.1094 194.785 75.5888 197.283 78.6473 197.283Z" fill="#8FEAFF"/>
<path d="M119.134 197.283C122.192 197.283 124.671 194.785 124.671 191.703C124.671 188.621 122.192 186.123 119.134 186.123C116.075 186.123 113.596 188.621 113.596 191.703C113.596 194.785 116.075 197.283 119.134 197.283Z" fill="#8FEAFF"/>
<path d="M5.70968 84.2055C8.76816 84.2055 11.2476 81.707 11.2476 78.6251C11.2476 75.5431 8.76816 73.0448 5.70968 73.0448C2.65119 73.0448 0.171875 75.5431 0.171875 78.6251C0.171875 81.707 2.65119 84.2055 5.70968 84.2055Z" fill="url(#paint0_radial_3129_356)"/>
<path d="M5.70968 125.002C8.76816 125.002 11.2476 122.504 11.2476 119.422C11.2476 116.34 8.76816 113.842 5.70968 113.842C2.65119 113.842 0.171875 116.34 0.171875 119.422C0.171875 122.504 2.65119 125.002 5.70968 125.002Z" fill="url(#paint1_radial_3129_356)"/>
<path d="M191.463 84.2055C194.521 84.2055 197.001 81.707 197.001 78.6251C197.001 75.5431 194.521 73.0448 191.463 73.0448C188.404 73.0448 185.925 75.5431 185.925 78.6251C185.925 81.707 188.404 84.2055 191.463 84.2055Z" fill="url(#paint2_radial_3129_356)"/>
<path d="M191.463 125.002C194.521 125.002 197.001 122.504 197.001 119.422C197.001 116.34 194.521 113.842 191.463 113.842C188.404 113.842 185.925 116.34 185.925 119.422C185.925 122.504 188.404 125.002 191.463 125.002Z" fill="url(#paint3_radial_3129_356)"/>
<path d="M37.0378 87.9666C42.3436 87.9666 46.6448 83.6324 46.6448 78.2858C46.6448 72.9392 42.3436 68.605 37.0378 68.605C31.7319 68.605 27.4307 72.9392 27.4307 78.2858C27.4307 83.6324 31.7319 87.9666 37.0378 87.9666Z" fill="#8FEAFF"/>
<path d="M159.835 87.9666C165.14 87.9666 169.442 83.6324 169.442 78.2858C169.442 72.9392 165.14 68.605 159.835 68.605C154.529 68.605 150.228 72.9392 150.228 78.2858C150.228 83.6324 154.529 87.9666 159.835 87.9666Z" fill="#8FEAFF"/>
<path d="M37.0378 46.4909C42.3436 46.4909 46.6448 42.1566 46.6448 36.8101C46.6448 31.4635 42.3436 27.1293 37.0378 27.1293C31.7319 27.1293 27.4307 31.4635 27.4307 36.8101C27.4307 42.1566 31.7319 46.4909 37.0378 46.4909Z" fill="url(#paint4_radial_3129_356)"/>
<path d="M77.7398 46.4909C83.0457 46.4909 87.3469 42.1566 87.3469 36.8101C87.3469 31.4635 83.0457 27.1293 77.7398 27.1293C72.434 27.1293 68.1328 31.4635 68.1328 36.8101C68.1328 42.1566 72.434 46.4909 77.7398 46.4909Z" fill="#8FEAFF"/>
<path d="M119.583 46.4909C124.889 46.4909 129.19 42.1566 129.19 36.8101C129.19 31.4635 124.889 27.1293 119.583 27.1293C114.277 27.1293 109.976 31.4635 109.976 36.8101C109.976 42.1566 114.277 46.4909 119.583 46.4909Z" fill="#8FEAFF"/>
<path d="M159.835 46.4909C165.14 46.4909 169.442 42.1566 169.442 36.8101C169.442 31.4635 165.14 27.1293 159.835 27.1293C154.529 27.1293 150.228 31.4635 150.228 36.8101C150.228 42.1566 154.529 46.4909 159.835 46.4909Z" fill="url(#paint5_radial_3129_356)"/>
<path d="M37.0378 170.013C42.3436 170.013 46.6448 165.679 46.6448 160.332C46.6448 154.986 42.3436 150.651 37.0378 150.651C31.7319 150.651 27.4307 154.986 27.4307 160.332C27.4307 165.679 31.7319 170.013 37.0378 170.013Z" fill="url(#paint6_radial_3129_356)"/>
<path d="M77.7398 170.013C83.0457 170.013 87.3469 165.679 87.3469 160.332C87.3469 154.986 83.0457 150.651 77.7398 150.651C72.434 150.651 68.1328 154.986 68.1328 160.332C68.1328 165.679 72.434 170.013 77.7398 170.013Z" fill="#8FEAFF"/>
<path d="M119.583 170.013C124.889 170.013 129.19 165.679 129.19 160.332C129.19 154.986 124.889 150.651 119.583 150.651C114.277 150.651 109.976 154.986 109.976 160.332C109.976 165.679 114.277 170.013 119.583 170.013Z" fill="#8FEAFF"/>
<path d="M159.835 170.013C165.14 170.013 169.442 165.679 169.442 160.332C169.442 154.986 165.14 150.651 159.835 150.651C154.529 150.651 150.228 154.986 150.228 160.332C150.228 165.679 154.529 170.013 159.835 170.013Z" fill="url(#paint7_radial_3129_356)"/>
<path d="M37.0378 129.442C42.3436 129.442 46.6448 125.108 46.6448 119.761C46.6448 114.415 42.3436 110.081 37.0378 110.081C31.7319 110.081 27.4307 114.415 27.4307 119.761C27.4307 125.108 31.7319 129.442 37.0378 129.442Z" fill="#8FEAFF"/>
<path d="M159.835 129.442C165.14 129.442 169.442 125.108 169.442 119.761C169.442 114.415 165.14 110.081 159.835 110.081C154.529 110.081 150.228 114.415 150.228 119.761C150.228 125.108 154.529 129.442 159.835 129.442Z" fill="#8FEAFF"/>
<path d="M119.133 93.4433C127.44 93.4433 134.175 86.657 134.175 78.2857C134.175 69.9145 127.44 63.1283 119.133 63.1283C110.825 63.1283 104.091 69.9145 104.091 78.2857C104.091 86.657 110.825 93.4433 119.133 93.4433Z" fill="#8FEAFF"/>
<path d="M119.133 134.693C127.44 134.693 134.175 127.906 134.175 119.535C134.175 111.164 127.44 104.378 119.133 104.378C110.825 104.378 104.091 111.164 104.091 119.535C104.091 127.906 110.825 134.693 119.133 134.693Z" fill="#8FEAFF"/>
<path d="M77.2901 134.693C85.5976 134.693 92.3322 127.906 92.3322 119.535C92.3322 111.164 85.5976 104.378 77.2901 104.378C68.9826 104.378 62.248 111.164 62.248 119.535C62.248 127.906 68.9826 134.693 77.2901 134.693Z" fill="#8FEAFF"/>
<defs>
<radialGradient id="paint0_radial_3129_356" cx="0" cy="0" r="1" gradientUnits="userSpaceOnUse" gradientTransform="translate(5.70973 78.6251) scale(5.53786 5.58035)">
<stop offset="0.12" stop-opacity="0"/>
<stop offset="0.19" stop-color="#030B0F" stop-opacity="0.13"/>
<stop offset="0.54" stop-color="#1F82AB" stop-opacity="0.85"/>
<stop offset="1" stop-color="#29ABE2"/>
</radialGradient>
<radialGradient id="paint1_radial_3129_356" cx="0" cy="0" r="1" gradientUnits="userSpaceOnUse" gradientTransform="translate(5.70973 119.422) scale(5.53786 5.58035)">
<stop offset="0.12" stop-opacity="0"/>
<stop offset="0.19" stop-color="#030B0F" stop-opacity="0.13"/>
<stop offset="0.54" stop-color="#1F82AB" stop-opacity="0.85"/>
<stop offset="1" stop-color="#29ABE2"/>
</radialGradient>
<radialGradient id="paint2_radial_3129_356" cx="0" cy="0" r="1" gradientUnits="userSpaceOnUse" gradientTransform="translate(191.463 78.6251) scale(5.53792 5.58035)">
<stop offset="0.12" stop-opacity="0"/>
<stop offset="0.19" stop-color="#030B0F" stop-opacity="0.13"/>
<stop offset="0.54" stop-color="#1F82AB" stop-opacity="0.85"/>
<stop offset="1" stop-color="#29ABE2"/>
</radialGradient>
<radialGradient id="paint3_radial_3129_356" cx="0" cy="0" r="1" gradientUnits="userSpaceOnUse" gradientTransform="translate(191.463 119.422) scale(5.53792 5.58035)">
<stop offset="0.12" stop-opacity="0"/>
<stop offset="0.19" stop-color="#030B0F" stop-opacity="0.13"/>
<stop offset="0.54" stop-color="#1F82AB" stop-opacity="0.85"/>
<stop offset="1" stop-color="#29ABE2"/>
</radialGradient>
<radialGradient id="paint4_radial_3129_356" cx="0" cy="0" r="1" gradientUnits="userSpaceOnUse" gradientTransform="translate(37.0377 36.8101) scale(9.60705 9.68082)">
<stop offset="0.12" stop-opacity="0"/>
<stop offset="0.19" stop-color="#030B0F" stop-opacity="0.13"/>
<stop offset="0.54" stop-color="#1F82AB" stop-opacity="0.85"/>
<stop offset="1" stop-color="#29ABE2"/>
</radialGradient>
<radialGradient id="paint5_radial_3129_356" cx="0" cy="0" r="1" gradientUnits="userSpaceOnUse" gradientTransform="translate(159.835 36.8101) scale(9.60706 9.68082)">
<stop offset="0.12" stop-opacity="0"/>
<stop offset="0.19" stop-color="#030B0F" stop-opacity="0.13"/>
<stop offset="0.54" stop-color="#1F82AB" stop-opacity="0.85"/>
<stop offset="1" stop-color="#29ABE2"/>
</radialGradient>
<radialGradient id="paint6_radial_3129_356" cx="0" cy="0" r="1" gradientUnits="userSpaceOnUse" gradientTransform="translate(37.0377 160.332) scale(9.60705 9.68082)">
<stop offset="0.12" stop-opacity="0"/>
<stop offset="0.19" stop-color="#030B0F" stop-opacity="0.13"/>
<stop offset="0.54" stop-color="#1F82AB" stop-opacity="0.85"/>
<stop offset="1" stop-color="#29ABE2"/>
</radialGradient>
<radialGradient id="paint7_radial_3129_356" cx="0" cy="0" r="1" gradientUnits="userSpaceOnUse" gradientTransform="translate(159.835 160.332) scale(9.60706 9.68082)">
<stop offset="0.12" stop-opacity="0"/>
<stop offset="0.19" stop-color="#030B0F" stop-opacity="0.13"/>
<stop offset="0.54" stop-color="#1F82AB" stop-opacity="0.85"/>
<stop offset="1" stop-color="#29ABE2"/>
</radialGradient>
</defs>
</svg>
