<svg width="1193" height="91" viewBox="0 0 1193 91" fill="none" xmlns="http://www.w3.org/2000/svg">
<path d="M18.78 76.62C7.02 71.22 0.3 61.02 0.3 46.26C0.3 31.98 6.66 21.9 17.94 16.62C14.1 24.06 12.54 34.38 12.54 46.26C12.54 58.5 14.58 68.94 18.78 76.62ZM17.94 16.62C22.26 8.1 29.7 3.06 41.1 3.06C52.5 3.06 59.82 7.98 64.14 16.26C58.02 13.5 50.22 12.06 41.1 12.06C32.1 12.06 24.18 13.62 17.94 16.62ZM18.78 76.62C24.9 79.38 32.46 80.82 41.1 80.82C50.22 80.82 58.02 79.38 64.14 76.5C59.82 85.02 52.5 89.94 41.1 89.94C30.78 89.94 23.46 85.02 18.78 76.62ZM64.14 76.5C68.1 68.94 69.66 58.38 69.66 46.26C69.66 34.14 68.1 23.82 64.14 16.26C75.78 21.54 81.9 31.62 81.9 46.26C81.9 60.9 75.78 71.22 64.14 76.5ZM167.069 76.5L183.989 2.81999H195.989L174.269 88.5H159.989L141.869 16.5H141.629L122.789 88.5H108.509L87.7491 2.81999H99.7491L115.829 76.5H116.069L134.069 2.81999H149.549L166.829 76.5H167.069ZM265.225 72.3V2.81999H276.025V88.5H263.545L216.865 19.74H216.625V88.5H205.825V2.81999H217.945L264.985 72.3H265.225ZM382.203 2.81999H395.163L362.403 53.46V88.5H351.003V53.46L317.883 2.81999H331.443L357.123 43.62L382.203 2.81999ZM419.109 7.25999C425.709 2.93999 433.509 0.779999 442.389 0.779999C451.269 0.779999 458.949 2.93999 465.549 7.25999C472.149 11.46 477.069 16.98 480.309 23.7C483.549 30.3 485.109 37.62 485.109 45.66C485.109 61.62 478.869 75.54 465.549 84.18C458.949 88.38 451.269 90.54 442.389 90.54C433.509 90.54 425.709 88.38 419.109 84.18C412.509 79.86 407.709 74.34 404.469 67.74C401.229 61.02 399.669 53.7 399.669 45.66C399.669 29.7 406.029 15.78 419.109 7.25999ZM424.869 75.66C429.789 79.14 435.549 80.94 442.389 80.94C449.229 80.94 454.989 79.14 459.909 75.66C464.829 72.06 468.309 67.62 470.469 62.46C476.949 46.74 474.069 25.98 459.909 15.78C454.989 12.18 449.229 10.38 442.389 10.38C435.549 10.38 429.789 12.18 424.869 15.78C419.949 19.26 416.469 23.7 414.309 28.86C407.709 44.58 410.709 65.22 424.869 75.66ZM566.72 2.81999V57.54C566.72 79.14 554.6 90.54 533 90.54C510.32 90.54 497.84 79.74 497.84 57.54V2.81999H509.24V57.54C509.24 72.78 517.64 80.94 533 80.94C547.52 80.94 555.32 72.78 555.32 57.54V2.81999H566.72ZM646.155 68.94C647.235 73.5 648.315 77.1 649.275 79.62C650.235 82.14 651.795 84.78 653.835 87.3V88.5H641.475C639.915 86.46 638.835 84.42 637.995 82.26C637.155 80.1 636.435 77.34 635.715 74.1C635.115 70.86 634.635 68.82 634.395 67.98C631.635 58.26 626.955 52.62 617.955 52.62H595.275V88.5H583.875V2.81999H620.355C638.715 2.81999 648.675 12.06 648.675 25.98C648.675 38.22 643.035 45.9 631.755 49.02C635.955 49.98 638.955 52.02 640.875 55.26C643.035 58.5 644.835 63.06 646.155 68.94ZM595.275 12.42V43.02H619.875C631.395 43.02 637.155 37.38 637.155 25.98C637.155 16.98 631.515 12.42 620.355 12.42H595.275ZM699.218 88.5V4.49999H729.458C740.738 4.49999 747.818 8.82 752.138 16.38C747.458 14.46 741.818 13.5 735.338 13.5H710.498V79.5H735.338C741.458 79.5 746.978 78.54 751.658 76.74C747.098 84.3 739.898 88.5 729.458 88.5H699.218ZM751.658 76.74C755.978 69.42 757.898 59.1 757.898 46.26C757.898 34.02 756.338 23.7 752.138 16.38C763.898 21.18 770.138 31.5 770.138 46.26C770.138 61.86 763.418 72.18 751.658 76.74ZM795.311 49.26V78.9H843.431V88.5H783.911V2.81999H843.071V12.42H795.311V39.66H840.551V49.26H795.311ZM919.422 27.42H908.022C906.702 15.42 900.102 10.38 887.982 10.38C882.342 10.38 877.662 11.58 873.702 13.86C869.742 16.14 867.822 19.86 867.822 25.02C867.822 47.22 922.662 30.3 922.662 64.98C922.662 70.74 920.862 75.66 917.262 79.62C910.182 87.66 899.982 90.54 888.822 90.54C878.382 90.54 869.862 88.14 863.142 83.34C856.422 78.42 853.062 71.1 853.062 61.38H864.462C864.462 68.1 866.742 73.02 871.302 76.26C875.862 79.38 881.742 80.94 888.822 80.94C894.942 80.94 900.222 79.74 904.662 77.34C909.102 74.94 911.262 70.98 911.262 65.34C911.262 39.3 856.422 57.3 856.422 25.86C856.422 17.82 859.542 11.58 865.662 7.25999C871.902 2.93999 879.342 0.779999 887.982 0.779999C906.582 0.779999 918.822 9.3 919.422 27.42ZM927.972 2.81999H996.372V12.42H967.812V88.5H956.532V12.42H927.972V2.81999ZM1006.47 88.5V2.81999H1017.87V88.5H1006.47ZM1095.73 72.3V2.81999H1106.53V88.5H1094.05L1047.37 19.74H1047.13V88.5H1036.33V2.81999H1048.45L1095.49 72.3H1095.73ZM1179.78 2.81999H1192.74L1159.98 53.46V88.5H1148.58V53.46L1115.46 2.81999H1129.02L1154.7 43.62L1179.78 2.81999Z" fill="white"/>
</svg>
