<svg width="67" height="67" viewBox="0 0 67 67" fill="none" xmlns="http://www.w3.org/2000/svg">
<path fill-rule="evenodd" clip-rule="evenodd" d="M64.506 37.3767C65.7927 37.3767 66.8327 38.4167 66.8327 39.7V39.8767C66.8327 45.5767 66.8327 50.09 66.3593 53.62C65.8693 57.2534 64.8393 60.2 62.5193 62.52C60.1993 64.84 57.2527 65.87 53.6193 66.36C50.086 66.8334 45.5727 66.8334 39.876 66.8334H39.6993C39.0979 66.8106 38.5288 66.5557 38.1114 66.1221C37.6939 65.6886 37.4607 65.1102 37.4607 64.5084C37.4607 63.9065 37.6939 63.3281 38.1114 62.8946C38.5288 62.4611 39.0979 62.2061 39.6993 62.1834C45.6127 62.1834 49.8127 62.1767 52.9993 61.75C56.1193 61.33 57.9193 60.5434 59.2327 59.23C60.5427 57.92 61.3293 56.12 61.7493 53C62.176 49.8134 62.1827 45.6134 62.1827 39.7C62.1827 38.4167 63.2227 37.3767 64.506 37.3767ZM2.49268 37.3767C3.77602 37.3767 4.81602 38.4167 4.81602 39.7C4.81602 45.6134 4.82268 49.8134 5.24935 53C5.66935 56.12 6.45602 57.92 7.76935 59.2334C9.08268 60.5434 10.8793 61.33 13.9993 61.75C17.186 62.1767 21.386 62.1834 27.2993 62.1834C27.6121 62.1715 27.924 62.2229 28.2164 62.3344C28.5088 62.4459 28.7757 62.6153 29.0012 62.8323C29.2266 63.0494 29.4059 63.3097 29.5284 63.5977C29.6509 63.8857 29.7141 64.1954 29.7141 64.5084C29.7141 64.8213 29.6509 65.1311 29.5284 65.419C29.4059 65.707 29.2266 65.9673 29.0012 66.1844C28.7757 66.4015 28.5088 66.5708 28.2164 66.6823C27.924 66.7938 27.6121 66.8452 27.2993 66.8334H27.1227C21.4227 66.8334 16.9093 66.8334 13.3793 66.36C9.74602 65.87 6.79935 64.84 4.47935 62.52C2.15935 60.2 1.12935 57.2534 0.639349 53.62C0.166015 50.0867 0.166016 45.5734 0.166016 39.8767V39.7C0.166016 38.4167 1.20602 37.3767 2.49268 37.3767ZM27.1227 0.166706H27.2993C27.6121 0.154862 27.924 0.206231 28.2164 0.317738C28.5088 0.429245 28.7757 0.598598 29.0012 0.815663C29.2266 1.03273 29.4059 1.29304 29.5284 1.58103C29.6509 1.86901 29.7141 2.17875 29.7141 2.49171C29.7141 2.80466 29.6509 3.1144 29.5284 3.40238C29.4059 3.69037 29.2266 3.95068 29.0012 4.16775C28.7757 4.38481 28.5088 4.55417 28.2164 4.66567C27.924 4.77718 27.6121 4.82855 27.2993 4.81671C21.386 4.81671 17.186 4.82337 13.9993 5.25004C10.8793 5.67004 9.08268 6.45671 7.76602 7.77004C6.45602 9.08337 5.66935 10.88 5.24935 14C4.82268 17.1867 4.81602 21.3867 4.81602 27.3C4.79324 27.9014 4.53832 28.4706 4.10479 28.888C3.67125 29.3055 3.09284 29.5387 2.49102 29.5387C1.88919 29.5387 1.31078 29.3055 0.877244 28.888C0.443712 28.4706 0.188791 27.9014 0.166016 27.3V27.1234C0.166016 21.4234 0.166015 16.91 0.639349 13.38C1.12935 9.74671 2.15935 6.80004 4.47935 4.48004C6.79935 2.16004 9.74602 1.13004 13.3793 0.640039C16.9127 0.166706 21.426 0.166706 27.1227 0.166706ZM52.9993 5.25004C49.8127 4.82337 45.6127 4.81671 39.6993 4.81671C39.0979 4.79393 38.5288 4.53901 38.1114 4.10548C37.6939 3.67194 37.4607 3.09353 37.4607 2.49171C37.4607 1.88988 37.6939 1.31147 38.1114 0.877935C38.5288 0.444402 39.0979 0.189481 39.6993 0.166706H39.876C45.576 0.166706 50.0893 0.166706 53.6193 0.640039C57.2527 1.13004 60.1993 2.16004 62.5193 4.48004C64.8393 6.80004 65.8693 9.74671 66.3593 13.38C66.8327 16.9134 66.8327 21.4267 66.8327 27.1234V27.3C66.8445 27.6128 66.7932 27.9247 66.6816 28.2171C66.5701 28.5095 66.4008 28.7764 66.1837 29.0019C65.9667 29.2273 65.7063 29.4066 65.4184 29.5291C65.1304 29.6516 64.8206 29.7148 64.5077 29.7148C64.1947 29.7148 63.885 29.6516 63.597 29.5291C63.309 29.4066 63.0487 29.2273 62.8316 29.0019C62.6146 28.7764 62.4452 28.5095 62.3337 28.2171C62.2222 27.9247 62.1708 27.6128 62.1827 27.3C62.1827 21.3867 62.176 17.1867 61.7493 14C61.3293 10.88 60.5427 9.08337 59.2293 7.76671C57.9193 6.45671 56.1193 5.67004 52.9993 5.25004Z" fill="#8FEAFF"/>
<path fill-rule="evenodd" clip-rule="evenodd" d="M11.42 11.42C8.69336 14.1434 8.69336 18.5267 8.69336 27.2967V39.7034C8.69336 48.47 8.69336 52.8567 11.42 55.5834C14.1434 58.3067 18.5267 58.3067 27.2967 58.3067H39.7034C48.47 58.3067 52.8567 58.3067 55.5834 55.5834C58.3067 52.8567 58.3067 48.4734 58.3067 39.7034V27.2967C58.3067 18.53 58.3067 14.1434 55.5834 11.42C52.8567 8.69336 48.4734 8.69336 39.7034 8.69336H27.2967C18.53 8.69336 14.1434 8.69336 11.42 11.42ZM23.7267 41.98C23.8854 41.7649 24.085 41.5831 24.3141 41.4452C24.5431 41.3073 24.7971 41.2159 25.0615 41.1763C25.3259 41.1367 25.5956 41.1496 25.855 41.2143C26.1144 41.279 26.3585 41.3942 26.5734 41.5534C28.5467 43.02 30.9334 43.8667 33.5 43.8667C36.0667 43.8667 38.4534 43.02 40.4267 41.5534C40.8603 41.232 41.4038 41.0961 41.9377 41.1755C42.4716 41.2549 42.952 41.5431 43.2734 41.9767C43.5947 42.4103 43.7306 42.9538 43.6513 43.4877C43.5719 44.0216 43.2837 44.502 42.85 44.8234C40.1502 46.8414 36.8707 47.9333 33.5 47.9367C30.1293 47.9333 26.8499 46.8414 24.15 44.8234C23.9351 44.6644 23.7537 44.4646 23.6161 44.2354C23.4785 44.0063 23.3874 43.7522 23.3481 43.4878C23.3088 43.2234 23.322 42.9538 23.3869 42.6945C23.4519 42.4353 23.5674 42.1947 23.7267 41.98ZM44.3534 28.2667C44.3534 30.5167 43.1367 32.3367 41.64 32.3367C40.14 32.3367 38.9267 30.5167 38.9267 28.27C38.9267 26.02 40.14 24.1967 41.64 24.1967C43.14 24.1967 44.3534 26.02 44.3534 28.2667ZM25.36 32.3367C26.86 32.3367 28.0734 30.5167 28.0734 28.27C28.0734 26.02 26.86 24.1967 25.36 24.1967C23.86 24.1967 22.6467 26.02 22.6467 28.2667C22.6467 30.5167 23.8634 32.3367 25.36 32.3367Z" fill="#8FEAFF"/>
</svg>
