<svg width="81" height="81" viewBox="0 0 81 81" fill="none" xmlns="http://www.w3.org/2000/svg">
<path d="M10.3877 32.0625C9.96607 32.0663 9.55098 31.9585 9.18454 31.75C8.91576 31.5989 8.67981 31.3958 8.4905 31.1524C8.30119 30.909 8.16231 30.6304 8.082 30.3327C8.00169 30.035 7.98155 29.7243 8.02276 29.4187C8.06398 29.1132 8.16572 28.8189 8.32204 28.5531C11.3345 23.525 20.5002 11.7891 40.5002 11.7891C49.1674 11.7891 56.7689 14.0656 63.083 18.5531C68.2798 22.2359 71.1923 26.4047 72.5798 28.4125C72.7558 28.6656 72.8794 28.9513 72.9433 29.2529C73.0072 29.5544 73.0101 29.8657 72.9518 30.1684C72.8936 30.4711 72.7754 30.7591 72.6042 31.0154C72.4329 31.2717 72.2122 31.4912 71.9548 31.6609C71.4289 32.0086 70.7883 32.1378 70.1688 32.0211C69.5493 31.9044 68.9995 31.5511 68.6361 31.0359C66.1252 27.425 58.4689 16.4375 40.5002 16.4375C22.9611 16.4375 15.0314 26.5484 12.4486 30.8844C12.2411 31.2465 11.9406 31.5466 11.5783 31.7537C11.216 31.9608 10.805 32.0674 10.3877 32.0625Z" fill="#8FEAFF"/>
<path d="M50.5761 77.9999C50.3766 78.0023 50.1777 77.9797 49.9839 77.9327C35.4761 74.339 30.0589 59.8358 29.8386 59.2327L29.8042 59.0999C29.6854 58.6812 26.7745 48.7358 31.2432 42.9108C33.2917 40.2546 36.4073 38.8921 40.5214 38.8921C44.3464 38.8921 47.1057 40.0812 49.0026 42.5421C50.5651 44.5515 51.1901 47.0296 51.7948 49.4171C53.0651 54.389 53.9823 56.9999 59.262 57.2687C61.5807 57.3858 63.1042 56.0296 63.9682 54.8749C66.3042 51.7265 66.7104 46.5937 64.9495 42.0624C62.687 36.214 54.6573 25.1874 40.4995 25.1874C34.4557 25.1874 28.9026 27.1296 24.4495 30.7796C20.7636 33.803 17.8432 38.0718 16.437 42.4593C13.8292 50.628 17.2495 63.4687 17.2823 63.5858C17.3622 63.8847 17.3814 64.1965 17.3388 64.5029C17.2963 64.8093 17.1928 65.1041 17.0345 65.3698C16.8762 65.6356 16.6663 65.867 16.4171 66.0503C16.168 66.2337 15.8847 66.3653 15.5839 66.4374C14.9762 66.599 14.3293 66.5161 13.782 66.2065C13.2346 65.8969 12.8303 65.3853 12.6557 64.7812C12.4995 64.1952 8.84637 50.4999 11.8589 41.0593C15.1401 30.8296 25.2667 20.5171 40.5042 20.5171C47.5464 20.5171 54.1995 22.9108 59.7526 27.4312C64.0526 30.9468 67.5651 35.6687 69.4026 40.389C71.7386 46.4155 71.112 53.1796 67.8104 57.5983C65.6104 60.5452 62.4776 62.0858 59.0073 61.9186C49.9667 61.4655 48.3417 55.1546 47.1573 50.5515C45.9386 45.8296 45.1589 43.553 40.5042 43.553C37.9479 43.553 36.1526 44.2561 35.0354 45.7124C33.512 47.7046 33.3932 50.8187 33.562 53.078C33.6728 54.6522 33.9397 56.2114 34.3589 57.7327C34.7307 58.6702 39.5729 70.5452 51.1698 73.4187C51.4695 73.4897 51.7522 73.6195 52.0013 73.8007C52.2504 73.9819 52.4611 74.2108 52.621 74.474C52.7809 74.7373 52.8869 75.0297 52.9328 75.3343C52.9788 75.6389 52.9637 75.9496 52.8886 76.2483C52.747 76.7526 52.4444 77.1968 52.0269 77.5131C51.6094 77.8293 51.0998 78.0003 50.5761 77.9999Z" fill="#8FEAFF"/>
<path d="M31.9551 76.9282C31.6299 76.9289 31.308 76.8641 31.0084 76.7376C30.7088 76.6112 30.4377 76.4257 30.2114 76.1923C24.4051 70.0985 21.1207 63.2845 19.8848 54.7642V54.7188C19.1911 49.0782 20.2067 41.0923 25.1832 35.6017C28.8567 31.5501 34.0207 29.4907 40.5051 29.4907C48.1739 29.4907 54.2004 33.0563 57.9582 39.786C60.6848 44.6751 61.2254 49.547 61.2395 49.747C61.2681 50.0553 61.2356 50.3663 61.1438 50.6621C61.052 50.9579 60.9028 51.2327 60.7047 51.4707C60.5066 51.7087 60.2634 51.9053 59.9892 52.0492C59.715 52.1932 59.4151 52.2816 59.1067 52.3095C58.4843 52.377 57.8604 52.1971 57.3696 51.8086C56.8788 51.4201 56.5604 50.8541 56.4832 50.2329C56.0717 47.3097 55.1257 44.4872 53.6926 41.9063C50.7801 36.7673 46.3489 34.1548 40.4879 34.1548C35.4254 34.1548 31.4645 35.6782 28.7395 38.686C24.8114 43.022 24.052 49.7017 24.5911 54.1204C25.6739 61.6548 28.5692 67.6485 33.6817 73.0048C33.8951 73.2268 34.0616 73.4894 34.1715 73.777C34.2813 74.0647 34.3323 74.3715 34.3212 74.6792C34.3101 74.9869 34.2373 75.2892 34.107 75.5682C33.9767 75.8472 33.7917 76.0972 33.5629 76.3032C33.1223 76.7026 32.5498 76.9252 31.9551 76.9282Z" fill="#8FEAFF"/>
<path d="M58.7039 70.2156C53.6258 70.2156 49.3086 68.8094 45.8539 66.0141C38.9133 60.4219 38.1352 51.3141 38.1008 50.9297C38.0519 50.2988 38.2556 49.6743 38.6672 49.1935C39.0787 48.7128 39.6644 48.4153 40.2953 48.3664C40.9262 48.3175 41.5507 48.5212 42.0315 48.9328C42.5122 49.3444 42.8097 49.93 42.8586 50.5609C42.8758 50.6953 43.5695 58.1453 48.9195 62.4359C52.0852 64.9641 56.3164 65.9672 61.5305 65.3812C62.1536 65.3057 62.7814 65.4799 63.2765 65.8657C63.7716 66.2516 64.0938 66.8179 64.1727 67.4406C64.2068 67.7483 64.1793 68.0596 64.0918 68.3565C64.0043 68.6534 63.8586 68.9299 63.6631 69.1699C63.4676 69.4099 63.2263 69.6086 62.9533 69.7543C62.6802 69.9 62.3808 69.9899 62.0727 70.0188C60.9545 70.1492 59.8297 70.215 58.7039 70.2156ZM62.7164 8.12344C60.7352 6.83438 53.7102 3 40.5008 3C26.6352 3 19.593 7.23594 18.0352 8.3125C17.9323 8.37565 17.836 8.44893 17.7477 8.53125C17.7383 8.54026 17.7262 8.54578 17.7133 8.54688C17.4645 8.76407 17.2649 9.0318 17.1278 9.33221C16.9906 9.63263 16.9191 9.95883 16.918 10.2891C16.9222 10.5986 16.9876 10.9043 17.1102 11.1886C17.2328 11.4728 17.4103 11.7301 17.6325 11.9457C17.8548 12.1612 18.1173 12.3308 18.4052 12.4447C18.6931 12.5586 19.0006 12.6145 19.3102 12.6094C19.8063 12.609 20.2905 12.4569 20.6977 12.1734C20.7648 12.1234 26.8258 7.67031 40.5055 7.67031C54.1852 7.67031 60.2789 12.1078 60.3445 12.1406C60.7605 12.4491 61.2657 12.6137 61.7836 12.6094C62.0934 12.6141 62.4011 12.5576 62.689 12.4432C62.9769 12.3287 63.2394 12.1585 63.4614 11.9423C63.6834 11.7262 63.8605 11.4683 63.9825 11.1835C64.1046 10.8987 64.1692 10.5926 64.1727 10.2828C64.1728 9.81873 64.0342 9.3652 63.7747 8.98043C63.5153 8.59567 63.1467 8.29724 62.7164 8.12344Z" fill="#8FEAFF"/>
</svg>
