<svg width="27" height="26" viewBox="0 0 27 26" fill="none" xmlns="http://www.w3.org/2000/svg">
<path d="M13.5 0C6.32174 0 0.5 5.82174 0.5 13C0.5 20.1783 6.32174 26 13.5 26C20.6783 26 26.5 20.1783 26.5 13C26.5 5.82174 20.6783 0 13.5 0ZM20.6783 8.87391L11.6348 17.9174C11.5217 18.0304 11.4087 18.087 11.2391 18.087C11.0696 18.087 10.9565 18.0304 10.8435 17.9174L6.32174 13.3957C6.09565 13.1696 6.09565 12.8304 6.32174 12.6043C6.54783 12.3783 6.88696 12.3783 7.11304 12.6043L11.2391 16.7304L19.887 8.08261C20.113 7.85652 20.4522 7.85652 20.6783 8.08261C20.9043 8.3087 20.9043 8.64783 20.6783 8.87391Z" fill="#8FEAFF"/>
</svg>
