<svg width="22" height="19" viewBox="0 0 22 19" fill="none" xmlns="http://www.w3.org/2000/svg">
<path d="M18.0013 3.00065H15.6946L15.2626 1.84865C14.9239 0.941984 14.0453 0.333984 13.0773 0.333984H8.92527C7.95727 0.333984 7.07994 0.943318 6.74127 1.84865L6.30927 3.00065H4.0026C1.97994 3.00065 0.335938 4.64465 0.335938 6.66732V15.334C0.335938 17.3566 1.97994 19.0007 4.0026 19.0007H18.0013C20.0239 19.0007 21.6679 17.3566 21.6679 15.334V6.66732C21.6679 4.64465 20.0239 3.00065 18.0013 3.00065ZM4.3346 8.33398C3.5986 8.33398 3.00127 7.73665 3.00127 7.00065C3.00127 6.26465 3.5986 5.66732 4.3346 5.66732C5.0706 5.66732 5.66794 6.26465 5.66794 7.00065C5.66794 7.73665 5.0706 8.33398 4.3346 8.33398ZM11.0013 15.0007C8.79194 15.0007 7.00127 13.21 7.00127 11.0007C7.00127 8.79132 8.79194 7.00065 11.0013 7.00065C13.2106 7.00065 15.0013 8.79132 15.0013 11.0007C15.0013 13.21 13.2106 15.0007 11.0013 15.0007Z" fill="#B3B3B3"/>
</svg>
