<svg width="27" height="26" viewBox="0 0 27 26" fill="none" xmlns="http://www.w3.org/2000/svg">
<g opacity="0.3">
<path d="M13.75 0C6.57174 0 0.75 5.82174 0.75 13C0.75 20.1783 6.57174 26 13.75 26C20.9283 26 26.75 20.1783 26.75 13C26.75 5.82174 20.9283 0 13.75 0ZM20.9283 8.87391L11.8848 17.9174C11.7717 18.0304 11.6587 18.087 11.4891 18.087C11.3196 18.087 11.2065 18.0304 11.0935 17.9174L6.57174 13.3957C6.34565 13.1696 6.34565 12.8304 6.57174 12.6043C6.79783 12.3783 7.13696 12.3783 7.36304 12.6043L11.4891 16.7304L20.137 8.08261C20.363 7.85652 20.7022 7.85652 20.9283 8.08261C21.1543 8.3087 21.1543 8.64783 20.9283 8.87391Z" fill="#8FEAFF"/>
</g>
</svg>
