<svg width="63" height="73" viewBox="0 0 63 73" fill="none" xmlns="http://www.w3.org/2000/svg">
<path d="M31.5004 49.8342C41.3049 49.8342 49.2782 41.8609 49.2782 32.0564V18.7231C49.2782 8.91865 41.3049 0.945312 31.5004 0.945312C21.696 0.945312 13.7227 8.91865 13.7227 18.7231V32.0564C13.7227 41.8609 21.696 49.8342 31.5004 49.8342Z" fill="#8FEAFF"/>
<path d="M59.2795 28.7227C57.4395 28.7227 55.9462 30.216 55.9462 32.056C55.9462 45.536 44.9817 56.5004 31.5017 56.5004C18.0217 56.5004 7.05729 45.536 7.05729 32.056C7.05729 30.216 5.56396 28.7227 3.72396 28.7227C1.88396 28.7227 0.390625 30.216 0.390625 32.056C0.390625 48.0827 12.5773 61.3138 28.1684 62.9804V68.7227C28.1684 70.5627 29.6617 72.056 31.5017 72.056C33.3417 72.056 34.8351 70.5627 34.8351 68.7227V62.9804C50.4262 61.3093 62.6128 48.0827 62.6128 32.056C62.6128 30.216 61.1195 28.7227 59.2795 28.7227Z" fill="#8FEAFF"/>
</svg>
